<svg xmlns="http://www.w3.org/2000/svg" xmlns:xlink="http://www.w3.org/1999/xlink" width="1841" zoomAndPan="magnify" viewBox="0 0 1380.75 1380.749964" height="1841" preserveAspectRatio="xMidYMid meet" version="1.0"><defs><clipPath id="389e0d4010"><path d="M 0 0 L 1380.5 0 L 1380.5 1380.5 L 0 1380.5 Z M 0 0 " clip-rule="nonzero"/></clipPath><clipPath id="3fee80aed2"><path d="M 270.503906 270.503906 L 1110.246094 270.503906 L 1110.246094 1110.246094 L 270.503906 1110.246094 Z M 270.503906 270.503906 " clip-rule="nonzero"/></clipPath><clipPath id="45617922fa"><path d="M 690.375 270.503906 C 458.488281 270.503906 270.503906 458.488281 270.503906 690.375 C 270.503906 922.261719 458.488281 1110.246094 690.375 1110.246094 C 922.261719 1110.246094 1110.246094 922.261719 1110.246094 690.375 C 1110.246094 458.488281 922.261719 270.503906 690.375 270.503906 " clip-rule="nonzero"/></clipPath></defs><g clip-path="url(#389e0d4010)"><path fill="#ffffff" d="M 0 0 L 1380.75 0 L 1380.75 1388.25 L 0 1388.25 Z M 0 0 " fill-opacity="1" fill-rule="nonzero"/><path fill="#ffffff" d="M 0 0 L 1380.75 0 L 1380.75 1380.75 L 0 1380.75 Z M 0 0 " fill-opacity="1" fill-rule="nonzero"/><path fill="#ffffff" d="M 0 0 L 1380.75 0 L 1380.75 1380.75 L 0 1380.75 Z M 0 0 " fill-opacity="1" fill-rule="nonzero"/></g><g clip-path="url(#3fee80aed2)"><g clip-path="url(#45617922fa)"><path fill="#ffffff" d="M 270.503906 270.503906 L 1110.246094 270.503906 L 1110.246094 1110.246094 L 270.503906 1110.246094 Z M 270.503906 270.503906 " fill-opacity="1" fill-rule="nonzero"/></g></g><path fill="#000000" d="M 668.03125 325.789062 C 665.832031 326.125 663.550781 326.804688 662.789062 327.394531 C 662.113281 327.984375 658.226562 336.4375 654.171875 346.15625 C 650.113281 355.871094 646.398438 363.648438 646.058594 363.394531 C 645.636719 363.140625 641.496094 357.5625 636.761719 350.972656 C 632.03125 344.378906 626.792969 337.28125 625.1875 335.253906 L 622.144531 331.535156 L 615.046875 332.125 C 606.257812 332.800781 604.144531 333.308594 603.554688 334.832031 C 602.707031 336.945312 612.171875 414.773438 613.355469 415.953125 C 614.199219 416.800781 615.976562 416.882812 621.214844 416.207031 C 631.863281 414.941406 631.777344 415.023438 631.777344 411.476562 C 631.777344 409.871094 630.765625 400.320312 629.582031 390.351562 C 628.398438 380.378906 627.550781 371.589844 627.722656 370.914062 C 627.890625 370.070312 630.933594 373.449219 635.496094 379.617188 C 639.636719 385.109375 643.4375 389.925781 643.945312 390.265625 C 644.453125 390.601562 646.3125 390.941406 648.003906 390.941406 C 654.253906 390.941406 654.761719 390.351562 660.507812 377.082031 C 663.382812 370.238281 665.917969 364.828125 666.085938 365 C 666.253906 365.167969 667.523438 374.96875 668.875 386.714844 C 670.734375 402.519531 671.75 408.433594 672.675781 409.109375 C 673.4375 409.703125 675.71875 409.871094 678.847656 409.449219 C 681.550781 409.109375 684.761719 408.773438 685.945312 408.773438 C 687.128906 408.6875 688.734375 408.179688 689.578125 407.589844 C 690.929688 406.574219 690.761719 404.378906 686.367188 366.605469 C 683.832031 344.71875 681.550781 326.378906 681.210938 325.875 C 680.621094 324.945312 674.285156 324.945312 668.03125 325.789062 Z M 668.03125 325.789062 " fill-opacity="1" fill-rule="nonzero"/><path fill="#000000" d="M 751.011719 334.492188 C 750.253906 336.773438 733.691406 401.671875 732.082031 408.6875 C 731.746094 409.871094 731.832031 411.222656 732.167969 411.730469 C 732.84375 412.914062 744.589844 416.292969 747.800781 416.292969 C 750.589844 416.292969 750.929688 415.53125 753.886719 404.039062 C 755.238281 398.886719 756.503906 394.492188 756.84375 394.066406 C 757.097656 393.730469 761.574219 394.40625 766.644531 395.671875 C 782.195312 399.390625 792.589844 397.703125 800.53125 389.925781 C 805.769531 384.773438 808.644531 377.757812 809.066406 368.71875 C 809.40625 361.789062 809.320312 361.027344 806.785156 355.871094 C 803.742188 349.703125 799.265625 345.476562 792.417969 342.265625 C 787.855469 340.070312 757.265625 331.789062 753.71875 331.789062 C 752.449219 331.789062 751.6875 332.550781 751.011719 334.492188 Z M 775.351562 355.449219 C 778.730469 356.464844 782.703125 357.816406 784.054688 358.492188 C 791.574219 362.378906 791.574219 374.714844 783.96875 378.6875 C 782.53125 379.363281 779.828125 379.957031 777.800781 379.957031 C 774.421875 379.957031 762.25 377.25 761.324219 376.320312 C 760.984375 375.898438 765.886719 355.789062 766.730469 354.351562 C 767.238281 353.421875 768.589844 353.589844 775.351562 355.449219 Z M 775.351562 355.449219 " fill-opacity="1" fill-rule="nonzero"/><path fill="#000000" d="M 543.894531 353.589844 C 524.457031 361.449219 517.191406 364.746094 517.019531 365.84375 C 516.597656 367.957031 545.667969 440.796875 547.273438 441.644531 C 548.203125 442.152344 556.992188 439.023438 576.933594 431.164062 C 602.625 421.023438 605.160156 419.839844 605.414062 417.898438 C 605.75 415.109375 601.101562 404.125 599.414062 403.785156 C 598.738281 403.617188 589.441406 406.914062 578.878906 411.136719 C 568.316406 415.277344 559.359375 418.574219 559.105469 418.40625 C 558.34375 417.898438 552.851562 403.703125 553.273438 403.277344 C 553.441406 403.027344 560.792969 400.066406 569.582031 396.601562 C 578.457031 393.222656 585.976562 389.757812 586.484375 388.996094 C 587.414062 387.476562 583.527344 376.574219 581.414062 374.800781 C 580.398438 373.957031 577.105469 375.054688 563.753906 380.292969 C 554.710938 383.84375 547.019531 386.714844 546.683594 386.714844 C 545.921875 386.714844 541.191406 374.800781 541.695312 374.292969 C 541.867188 374.125 550.316406 370.660156 560.457031 366.519531 L 578.960938 359.082031 L 578.878906 356.210938 C 578.792969 351.984375 574.316406 343.195312 572.203125 343.027344 C 571.273438 342.941406 558.511719 347.761719 543.894531 353.589844 Z M 543.894531 353.589844 " fill-opacity="1" fill-rule="nonzero"/><path fill="#000000" d="M 836.023438 363.222656 C 821.996094 388.660156 800.703125 429.304688 800.953125 430.320312 C 801.292969 432.179688 815.234375 439.617188 817.011719 438.941406 C 817.769531 438.601562 825.039062 425.839844 833.320312 410.460938 C 841.515625 395.082031 848.53125 382.492188 848.953125 382.492188 C 849.289062 382.492188 853.347656 384.519531 857.910156 387.054688 C 867.964844 392.460938 870.417969 395.335938 869.824219 400.914062 C 869.320312 405.308594 866.785156 408.347656 862.472656 409.617188 C 859.347656 410.546875 856.980469 410.125 850.898438 407.757812 C 847.433594 406.320312 846.839844 406.914062 842.445312 415.617188 L 838.898438 422.628906 L 840.417969 436.996094 C 841.261719 444.855469 842.277344 451.953125 842.53125 452.714844 C 843.207031 454.320312 858.164062 462.769531 860.277344 462.769531 C 861.035156 462.769531 861.882812 462.261719 862.136719 461.671875 C 862.304688 461.078125 861.714844 453.898438 860.785156 445.617188 C 859.855469 437.417969 859.09375 430.152344 859.09375 429.476562 C 859.09375 428.714844 860.699219 428.207031 864.839844 427.953125 C 871.9375 427.445312 877.683594 424.660156 882.585938 419.335938 C 887.234375 414.265625 889.597656 408.855469 890.105469 401.84375 C 890.78125 393.390625 888.839844 388.40625 882.417969 382.070312 C 878.191406 377.929688 874.136719 375.308594 859.429688 367.449219 C 849.628906 362.292969 841.007812 357.984375 840.332031 357.984375 C 839.488281 357.984375 837.714844 360.265625 836.023438 363.222656 Z M 836.023438 363.222656 " fill-opacity="1" fill-rule="nonzero"/><path fill="#000000" d="M 467.839844 394.320312 C 449.925781 406.660156 441.980469 412.660156 441.8125 413.84375 C 441.558594 415.449219 447.476562 425.082031 449.585938 426.601562 C 450.9375 427.53125 452.207031 426.941406 461.332031 420.6875 C 466.402344 417.222656 469.867188 415.449219 470.207031 415.953125 C 470.542969 416.460938 478.742188 428.292969 488.375 442.320312 C 502.402344 462.515625 506.375 467.839844 507.808594 467.839844 C 509.839844 467.839844 521.839844 459.8125 522.515625 458.039062 C 522.769531 457.445312 514.910156 445.191406 505.023438 430.996094 C 495.136719 416.714844 486.9375 404.632812 486.769531 404.125 C 486.601562 403.617188 490.316406 400.574219 494.964844 397.363281 C 499.613281 394.238281 503.667969 391.027344 503.921875 390.351562 C 504.515625 388.914062 496.570312 377.082031 494.796875 376.746094 C 494.121094 376.660156 481.953125 384.519531 467.839844 394.320312 Z M 467.839844 394.320312 " fill-opacity="1" fill-rule="nonzero"/><path fill="#000000" d="M 912.839844 410.039062 C 910.21875 413.082031 908.105469 416.125 908.105469 416.714844 C 908.105469 417.308594 909.796875 419.335938 911.910156 421.195312 L 915.710938 424.488281 L 900.414062 442.574219 C 891.964844 452.542969 884.78125 460.742188 884.445312 460.910156 C 884.023438 461.078125 881.910156 459.8125 879.796875 458.121094 C 877.601562 456.433594 875.316406 455.25 874.8125 455.417969 C 873.289062 455.925781 865.007812 466.066406 865.007812 467.417969 C 865.007812 469.191406 894.667969 494.035156 896.867188 494.035156 C 898.726562 494.035156 907.261719 484.742188 907.261719 482.628906 C 907.261719 482.035156 905.484375 480.007812 903.375 478.066406 L 899.488281 474.683594 L 915.289062 456.09375 L 931.089844 437.417969 L 934.554688 440.375 C 936.414062 441.980469 938.695312 443.332031 939.457031 443.332031 C 940.300781 443.332031 943.089844 440.796875 945.625 437.757812 C 949.597656 433.195312 950.1875 432.011719 949.511719 430.660156 C 948.328125 428.546875 920.019531 404.460938 918.667969 404.460938 C 918.078125 404.460938 915.457031 406.996094 912.839844 410.039062 Z M 912.839844 410.039062 " fill-opacity="1" fill-rule="nonzero"/><path fill="#000000" d="M 418.574219 439.109375 C 402.265625 444.261719 388.996094 462.261719 390.351562 477.304688 C 391.53125 490.148438 404.207031 500.035156 416.292969 497.585938 C 421.871094 496.402344 431.335938 492.007812 438.011719 487.445312 C 448.996094 480.007812 453.726562 478.824219 456.769531 482.710938 C 458.796875 485.332031 459.050781 488.964844 457.363281 492.261719 C 455.503906 495.8125 448.910156 501.386719 445.191406 502.488281 C 442.320312 503.417969 441.390625 503.332031 437.757812 501.640625 L 433.617188 499.867188 L 427.53125 506.289062 C 424.152344 509.839844 421.363281 513.304688 421.363281 513.894531 C 421.363281 515.5 424.40625 518.289062 428.546875 520.484375 C 431.25 522.007812 433.363281 522.34375 439.191406 522.34375 C 445.867188 522.34375 446.882812 522.089844 453.050781 519.050781 C 461.925781 514.65625 469.867188 506.710938 474.347656 497.753906 C 477.136719 491.921875 477.472656 490.570312 477.558594 484.824219 C 477.558594 479.753906 477.136719 477.640625 475.613281 474.769531 C 472.65625 469.277344 468.179688 464.714844 463.109375 462.261719 C 454.65625 458.121094 448.234375 459.8125 428.207031 471.558594 C 416.882812 478.234375 411.644531 478.824219 409.53125 473.839844 C 408.097656 470.289062 409.617188 466.320312 413.925781 462.007812 C 418.320312 457.53125 422.628906 456.179688 427.445312 457.699219 L 431.082031 458.714844 L 436.742188 452.628906 C 439.953125 449.332031 442.488281 446.207031 442.488281 445.699219 C 442.488281 444.011719 437.335938 440.121094 433.445312 438.769531 C 428.375 437.082031 424.660156 437.082031 418.574219 439.109375 Z M 418.574219 439.109375 " fill-opacity="1" fill-rule="nonzero"/><path fill="#000000" d="M 963.371094 444.011719 C 962.105469 444.769531 918.585938 514.234375 917.910156 516.515625 C 917.230469 518.878906 926.191406 530.964844 929.230469 531.808594 C 932.1875 532.570312 1011.539062 506.035156 1011.875 504.09375 C 1012.128906 502.488281 1001.988281 489.472656 1000.128906 489.136719 C 999.371094 489.050781 986.863281 493.277344 972.328125 498.597656 C 957.710938 503.921875 945.625 508.148438 945.457031 507.980469 C 945.289062 507.808594 952.132812 497.332031 960.582031 484.570312 C 969.03125 471.894531 976.214844 460.65625 976.386719 459.644531 C 976.636719 458.292969 975.117188 455.757812 971.144531 450.515625 C 965.398438 443.164062 964.976562 442.910156 963.371094 444.011719 Z M 963.371094 444.011719 " fill-opacity="1" fill-rule="nonzero"/><path fill="#000000" d="M 664.480469 471.21875 C 579.046875 479.5 505.527344 529.613281 467.417969 605.582031 C 454.996094 630.339844 448.234375 651.804688 444.09375 679.945312 C 441.304688 698.453125 441.304688 732 444.011719 749.660156 C 452.292969 803.320312 475.277344 849.289062 512.628906 886.980469 C 530.289062 904.808594 547.695312 917.824219 569.921875 930.078125 C 592.90625 942.667969 619.777344 951.964844 646.144531 956.273438 C 666.171875 959.570312 700.648438 959.992188 720.929688 957.117188 C 761.660156 951.371094 806.109375 932.1875 838.472656 906.246094 C 874.558594 877.429688 902.273438 838.050781 917.484375 794.023438 C 941.0625 725.746094 932.78125 649.863281 894.921875 587.582031 C 881.316406 565.1875 859.515625 540.511719 838.8125 523.949219 C 804.84375 496.910156 764.535156 479.417969 721.351562 472.824219 C 708.421875 470.882812 677.070312 469.953125 664.480469 471.21875 Z M 697.605469 502.488281 C 712.902344 503.417969 718.648438 504.175781 730.648438 506.796875 C 770.195312 515.414062 804.417969 533.753906 833.234375 561.640625 C 852.671875 580.484375 865.347656 597.890625 877.261719 622.058594 C 891.289062 650.539062 897.628906 676.140625 898.558594 708.675781 C 899.65625 745.351562 892.808594 776.785156 876.753906 809.152344 C 866.105469 830.785156 850.726562 851.574219 833.320312 868.304688 C 798.671875 901.34375 753.800781 922.050781 707.070312 926.695312 C 695.746094 927.796875 674.453125 927.796875 664.058594 926.613281 C 603.046875 920.019531 548.289062 887.992188 512.628906 837.96875 C 492.429688 809.660156 479.671875 776.703125 475.023438 741.210938 C 473.5 729.296875 473.25 701.324219 474.601562 690.339844 C 480.601562 641.917969 501.558594 598.90625 535.867188 564.511719 C 547.1875 553.1875 555.132812 546.683594 569.160156 537.300781 C 598.566406 517.613281 638.707031 504.175781 673.605469 502.234375 C 676.394531 502.0625 679.859375 501.894531 681.210938 501.8125 C 682.648438 501.726562 690 502.0625 697.605469 502.488281 Z M 697.605469 502.488281 " fill-opacity="1" fill-rule="nonzero"/><path fill="#000000" d="M 609.554688 610.734375 C 597.890625 612.511719 589.273438 623.160156 589.273438 635.582031 C 589.273438 645.972656 594.511719 654.085938 603.976562 658.394531 C 608.625 660.425781 609.976562 660.679688 615.636719 660.339844 C 622.988281 659.917969 627.550781 657.972656 632.199219 653.328125 C 637.523438 648.003906 638.960938 644.199219 638.960938 635.582031 C 638.960938 629.328125 638.621094 627.382812 637.015625 624.425781 C 631.691406 614.371094 620.875 608.960938 609.554688 610.734375 Z M 609.554688 610.734375 " fill-opacity="1" fill-rule="nonzero"/><path fill="#000000" d="M 749.492188 610.652344 C 737.914062 613.019531 729.886719 622.144531 729.125 633.890625 C 728.28125 648.507812 737.914062 659.410156 752.703125 660.339844 C 758.363281 660.679688 759.714844 660.425781 764.363281 658.394531 C 773.828125 654.085938 779.152344 645.972656 779.152344 635.582031 C 779.152344 622.820312 770.871094 613.019531 758.195312 610.734375 C 755.40625 610.230469 753.125 609.808594 753.125 609.890625 C 753.039062 609.976562 751.433594 610.3125 749.492188 610.652344 Z M 749.492188 610.652344 " fill-opacity="1" fill-rule="nonzero"/><path fill="#000000" d="M 554.878906 750.167969 C 553.695312 750.675781 551.835938 751.859375 550.738281 752.871094 C 546.257812 757.097656 546.007812 762.84375 550.0625 773.40625 C 563.753906 809.066406 587.835938 835.855469 621.214844 852.332031 C 635.074219 859.179688 648.171875 863.402344 663.464844 865.9375 C 673.015625 867.542969 676.480469 867.710938 690.507812 867.289062 C 702 866.953125 708.929688 866.277344 715.015625 865.007812 C 764.617188 854.53125 804.757812 820.304688 822.25 773.574219 C 825.546875 764.785156 826.050781 759.886719 824.023438 756 C 821.40625 751.011719 814.476562 748.222656 808.984375 750 C 804.757812 751.433594 801.96875 754.816406 799.433594 761.914062 C 785.066406 802.308594 750.929688 831.882812 708.929688 840.25 C 698.535156 842.277344 674.03125 842.277344 663.550781 840.25 C 640.144531 835.515625 618.933594 824.445312 602.117188 808.054688 C 589.78125 796.054688 580.398438 781.601562 573.890625 764.449219 C 570.003906 754.222656 569.074219 752.871094 564.765625 750.84375 C 560.878906 749.070312 558.089844 748.898438 554.878906 750.167969 Z M 554.878906 750.167969 " fill-opacity="1" fill-rule="nonzero"/><path fill="#000000" d="M 369.222656 490.824219 C 366.605469 494.121094 361.363281 504.347656 361.363281 506.035156 C 361.363281 507.132812 365.167969 513.980469 369.816406 521.332031 C 374.464844 528.597656 378.265625 534.851562 378.265625 535.273438 C 378.265625 535.867188 372.011719 535.949219 361.617188 535.695312 L 344.886719 535.273438 L 343.113281 537.21875 C 340.324219 540.429688 334.238281 551.667969 334.492188 553.105469 C 334.746094 554.289062 336.859375 554.542969 348.265625 554.964844 C 355.703125 555.300781 368.800781 555.554688 377.421875 555.640625 L 393.054688 555.722656 L 405.730469 562.90625 C 412.742188 566.878906 418.996094 570.003906 419.671875 569.921875 C 421.277344 569.582031 428.96875 556.570312 428.714844 554.457031 C 428.628906 553.273438 424.910156 550.652344 415.449219 545.246094 L 402.347656 537.808594 L 387.476562 513.980469 C 379.363281 500.964844 372.097656 490.148438 371.335938 489.980469 C 370.660156 489.8125 369.730469 490.234375 369.222656 490.824219 Z M 369.222656 490.824219 " fill-opacity="1" fill-rule="nonzero"/><path fill="#000000" d="M 982.46875 548.289062 C 956.695312 550.0625 947.0625 550.992188 946.21875 551.835938 C 945.289062 552.851562 945.710938 554.289062 949.003906 561.21875 L 952.894531 569.414062 L 960.160156 569.160156 L 967.511719 568.820312 L 972.667969 580.230469 C 975.539062 586.484375 978.414062 592.90625 979.003906 594.425781 L 980.1875 597.300781 L 975.457031 601.695312 C 972.414062 604.484375 970.640625 606.765625 970.640625 607.949219 C 970.640625 610.566406 977.0625 624.171875 978.328125 624.171875 C 980.777344 624.171875 1040.777344 564.429688 1040.777344 561.976562 C 1040.777344 559.863281 1036.128906 549.21875 1034.1875 547.019531 C 1032.410156 545.078125 1026.15625 545.246094 982.46875 548.289062 Z M 1014.410156 564.851562 C 1014.074219 565.695312 994.890625 583.609375 994.300781 583.609375 C 993.625 583.609375 986.527344 567.386719 987.03125 566.964844 C 987.453125 566.457031 1006.382812 564.429688 1011.453125 564.257812 C 1013.230469 564.257812 1014.582031 564.511719 1014.410156 564.851562 Z M 1014.410156 564.851562 " fill-opacity="1" fill-rule="nonzero"/><path fill="#000000" d="M 333.054688 579.722656 C 327.5625 582.257812 321.5625 588.933594 317.84375 596.625 C 306.945312 619.523438 316.492188 641.917969 337.28125 642.085938 C 347.253906 642.171875 354.519531 636.257812 364.324219 620.285156 C 367.113281 615.722656 370.492188 610.734375 371.84375 609.214844 C 374.96875 605.496094 378.265625 605.496094 381.816406 609.046875 C 384.265625 611.414062 384.351562 611.835938 383.925781 616.3125 C 383.335938 621.890625 380.464844 627.976562 377.167969 630.425781 C 375.816406 631.441406 372.941406 632.371094 370.40625 632.621094 L 366.011719 633.046875 L 364.070312 638.960938 C 360.941406 648.59375 360.859375 650.875 363.140625 652.144531 C 366.519531 654.003906 375.5625 653.496094 380.378906 651.214844 C 389.757812 646.734375 398.125 634.90625 400.742188 622.480469 C 403.449219 609.554688 400.996094 599.414062 393.476562 592.652344 C 388.660156 588.34375 382.914062 586.144531 376.324219 586.144531 C 366.859375 586.144531 362.632812 589.441406 352.492188 604.652344 C 341.675781 620.792969 337.535156 624.003906 333.140625 619.609375 C 330.183594 616.734375 330.097656 610.566406 332.972656 604.820312 C 335.335938 600.257812 337.871094 598.230469 342.519531 597.300781 C 345.648438 596.707031 345.816406 596.453125 348.011719 589.949219 C 349.28125 586.230469 350.210938 582.425781 350.125 581.496094 C 349.703125 577.441406 340.070312 576.425781 333.054688 579.722656 Z M 333.054688 579.722656 " fill-opacity="1" fill-rule="nonzero"/><path fill="#000000" d="M 1048.804688 607.355469 C 1046.945312 607.777344 1044.578125 608.285156 1043.648438 608.539062 C 1042.636719 608.792969 1041.621094 609.46875 1041.367188 610.144531 C 1041.113281 610.734375 1041.792969 615.804688 1042.890625 621.300781 C 1043.988281 626.875 1044.578125 631.609375 1044.324219 631.863281 C 1043.988281 632.199219 1030.214844 634.988281 1013.734375 638.117188 C 997.257812 641.242188 983.0625 644.199219 982.300781 644.621094 C 981.457031 645.042969 980.777344 646.3125 980.777344 647.410156 C 980.777344 651.042969 983.3125 661.777344 984.496094 662.875 C 985.425781 663.804688 990.917969 662.960938 1016.691406 657.972656 C 1033.847656 654.679688 1048.128906 652.3125 1048.46875 652.648438 C 1048.804688 652.988281 1049.734375 656.707031 1050.496094 660.929688 C 1052.355469 671.578125 1053.285156 674.03125 1055.144531 674.03125 C 1057.847656 674.03125 1069 671.496094 1069.847656 670.648438 C 1070.523438 669.972656 1060.128906 612.847656 1058.4375 608.285156 C 1057.679688 606.257812 1055.058594 605.917969 1048.804688 607.355469 Z M 1048.804688 607.355469 " fill-opacity="1" fill-rule="nonzero"/><path fill="#000000" d="M 989.398438 692.875 C 988.554688 693.804688 987.960938 702.085938 987.203125 723.632812 C 986.609375 739.773438 986.273438 753.71875 986.527344 754.476562 C 986.949219 756.335938 990.582031 757.011719 997.679688 756.675781 C 1002.917969 756.421875 1003.171875 756.335938 1003.765625 753.886719 C 1004.101562 752.449219 1004.609375 742.730469 1004.949219 732.082031 L 1005.453125 712.902344 L 1022.355469 712.902344 L 1021.761719 731.40625 C 1021.339844 742.984375 1021.425781 750.082031 1021.933594 750.335938 C 1022.441406 750.675781 1025.820312 751.097656 1029.453125 751.433594 C 1035.285156 751.941406 1036.296875 751.773438 1037.398438 750.503906 C 1038.578125 749.152344 1038.832031 745.351562 1039.847656 715.605469 C 1039.933594 713.746094 1040.183594 713.660156 1046.523438 713.914062 L 1053.03125 714.167969 L 1052.777344 734.28125 C 1052.523438 749.152344 1052.691406 754.730469 1053.453125 755.574219 C 1054.214844 756.503906 1056.410156 756.84375 1061.902344 756.84375 C 1068.070312 756.84375 1069.421875 756.589844 1069.847656 755.40625 C 1070.183594 754.644531 1070.859375 741.125 1071.367188 725.40625 C 1072.210938 700.648438 1072.210938 696.675781 1071.113281 695.664062 C 1070.183594 694.734375 1063.253906 694.3125 1041.199219 693.550781 C 1025.398438 693.042969 1007.480469 692.367188 1001.484375 692.027344 C 992.101562 691.605469 990.328125 691.777344 989.398438 692.875 Z M 989.398438 692.875 " fill-opacity="1" fill-rule="nonzero"/><path fill="#000000" d="M 301.367188 694.734375 C 300.015625 696.421875 302.128906 753.71875 303.5625 755.152344 C 305.085938 756.675781 384.941406 753.292969 386.039062 751.6875 C 386.886719 750.421875 386.292969 735.378906 385.363281 733.859375 C 384.941406 733.183594 379.957031 733.097656 368.546875 733.519531 L 352.238281 734.027344 L 351.730469 718.226562 C 351.394531 709.4375 350.886719 701.410156 350.546875 700.226562 C 349.957031 698.199219 349.535156 698.113281 342.859375 697.859375 C 338.296875 697.691406 335.421875 697.945312 334.660156 698.621094 C 333.5625 699.464844 333.480469 702.339844 333.984375 717.210938 L 334.578125 734.703125 L 327.480469 735.042969 C 323.59375 735.210938 320.296875 735.296875 320.128906 735.210938 C 319.957031 735.125 319.535156 726.589844 319.027344 716.195312 C 318.605469 705.804688 318.097656 696.421875 317.84375 695.324219 C 317.421875 693.550781 317 693.464844 309.902344 693.464844 C 304.242188 693.464844 302.128906 693.804688 301.367188 694.734375 Z M 301.367188 694.734375 " fill-opacity="1" fill-rule="nonzero"/></svg>