<?xml version="1.0" standalone="no"?>
<!DOCTYPE svg PUBLIC "-//W3C//DTD SVG 20010904//EN"
 "http://www.w3.org/TR/2001/REC-SVG-20010904/DTD/svg10.dtd">
<svg version="1.0" xmlns="http://www.w3.org/2000/svg"
 width="1381.000000pt" height="1381.000000pt" viewBox="0 0 1381.000000 1381.000000"
 preserveAspectRatio="xMidYMid meet">

<g transform="translate(0.000000,1381.000000) scale(0.100000,-0.100000)"
fill="#000000" stroke="none">
<path d="M6639 11221 c-26 -4 -53 -12 -62 -19 -8 -7 -54 -107 -102 -222 -48
-115 -92 -207 -96 -204 -5 3 -54 69 -110 147 -56 78 -118 162 -137 186 l-36
44 -84 -7 c-104 -8 -129 -14 -136 -32 -10 -25 102 -946 116 -960 10 -10 31
-11 93 -3 126 15 125 14 125 56 0 19 -12 132 -26 250 -14 118 -24 222 -22 230
2 10 38 -30 92 -103 49 -65 94 -122 100 -126 6 -4 28 -8 48 -8 74 0 80 7 148
164 34 81 64 145 66 143 2 -2 17 -118 33 -257 22 -187 34 -257 45 -265 9 -7
36 -9 73 -4 32 4 70 8 84 8 14 1 33 7 43 14 16 12 14 38 -38 485 -30 259 -57
476 -61 482 -7 11 -82 11 -156 1z"/>
<path d="M7621 11118 c-9 -27 -205 -795 -224 -878 -4 -14 -3 -30 1 -36 8 -14
147 -54 185 -54 33 0 37 9 72 145 16 61 31 113 35 118 3 4 56 -4 116 -19 184
-44 307 -24 401 68 62 61 96 144 101 251 4 82 3 91 -27 152 -36 73 -89 123
-170 161 -54 26 -416 124 -458 124 -15 0 -24 -9 -32 -32z m288 -248 c40 -12
87 -28 103 -36 89 -46 89 -192 -1 -239 -17 -8 -49 -15 -73 -15 -40 0 -184 32
-195 43 -4 5 54 243 64 260 6 11 22 9 102 -13z"/>
<path d="M5170 10892 c-230 -93 -316 -132 -318 -145 -5 -25 339 -887 358 -897
11 -6 115 31 351 124 304 120 334 134 337 157 4 33 -51 163 -71 167 -8 2 -118
-37 -243 -87 -125 -49 -231 -88 -234 -86 -9 6 -74 174 -69 179 2 3 89 38 193
79 105 40 194 81 200 90 11 18 -35 147 -60 168 -12 10 -51 -3 -209 -65 -107
-42 -198 -76 -202 -76 -9 0 -65 141 -59 147 2 2 102 43 222 92 l219 88 -1 34
c-1 50 -54 154 -79 156 -11 1 -162 -56 -335 -125z"/>
<path d="M8627 10778 c-166 -301 -418 -782 -415 -794 4 -22 169 -110 190 -102
9 4 95 155 193 337 97 182 180 331 185 331 4 0 52 -24 106 -54 119 -64 148
-98 141 -164 -6 -52 -36 -88 -87 -103 -37 -11 -65 -6 -137 22 -41 17 -48 10
-100 -93 l-42 -83 18 -170 c10 -93 22 -177 25 -186 8 -19 185 -119 210 -119 9
0 19 6 22 13 2 7 -5 92 -16 190 -11 97 -20 183 -20 191 0 9 19 15 68 18 84 6
152 39 210 102 55 60 83 124 89 207 8 100 -15 159 -91 234 -50 49 -98 80 -272
173 -116 61 -218 112 -226 112 -10 0 -31 -27 -51 -62z"/>
<path d="M4270 10410 c-212 -146 -306 -217 -308 -231 -3 -19 67 -133 92 -151
16 -11 31 -4 139 70 60 41 101 62 105 56 4 -6 101 -146 215 -312 166 -239 213
-302 230 -302 24 0 166 95 174 116 3 7 -90 152 -207 320 -117 169 -214 312
-216 318 -2 6 42 42 97 80 55 37 103 75 106 83 7 17 -87 157 -108 161 -8 1
-152 -92 -319 -208z"/>
<path d="M9536 10224 c-31 -36 -56 -72 -56 -79 0 -7 20 -31 45 -53 l45 -39
-181 -214 c-100 -118 -185 -215 -189 -217 -5 -2 -30 13 -55 33 -26 20 -53 34
-59 32 -18 -6 -116 -126 -116 -142 0 -21 351 -315 377 -315 22 0 123 110 123
135 0 7 -21 31 -46 54 l-46 40 187 220 187 221 41 -35 c22 -19 49 -35 58 -35
10 0 43 30 73 66 47 54 54 68 46 84 -14 25 -349 310 -365 310 -7 0 -38 -30
-69 -66z"/>
<path d="M3687 9880 c-193 -61 -350 -274 -334 -452 14 -152 164 -269 307 -240
66 14 178 66 257 120 130 88 186 102 222 56 24 -31 27 -74 7 -113 -22 -42
-100 -108 -144 -121 -34 -11 -45 -10 -88 10 l-49 21 -72 -76 c-40 -42 -73 -83
-73 -90 0 -19 36 -52 85 -78 32 -18 57 -22 126 -22 79 0 91 3 164 39 105 52
199 146 252 252 33 69 37 85 38 153 0 60 -5 85 -23 119 -35 65 -88 119 -148
148 -100 49 -176 29 -413 -110 -134 -79 -196 -86 -221 -27 -17 42 1 89 52 140
52 53 103 69 160 51 l43 -12 67 72 c38 39 68 76 68 82 0 20 -61 66 -107 82
-60 20 -104 20 -176 -4z"/>
<path d="M10134 9822 c-15 -9 -530 -831 -538 -858 -8 -28 98 -171 134 -181 35
-9 974 305 978 328 3 19 -117 173 -139 177 -9 1 -157 -49 -329 -112 -173 -63
-316 -113 -318 -111 -2 2 79 126 179 277 100 150 185 283 187 295 3 16 -15 46
-62 108 -68 87 -73 90 -92 77z"/>
<path d="M6597 9500 c-1011 -98 -1881 -691 -2332 -1590 -147 -293 -227 -547
-276 -880 -33 -219 -33 -616 -1 -825 98 -635 370 -1179 812 -1625 209 -211
415 -365 678 -510 272 -149 590 -259 902 -310 237 -39 645 -44 885 -10 482 68
1008 295 1391 602 427 341 755 807 935 1328 279 808 181 1706 -267 2443 -161
265 -419 557 -664 753 -402 320 -879 527 -1390 605 -153 23 -524 34 -673 19z
m392 -370 c181 -11 249 -20 391 -51 468 -102 873 -319 1214 -649 230 -223 380
-429 521 -715 166 -337 241 -640 252 -1025 13 -434 -68 -806 -258 -1189 -126
-256 -308 -502 -514 -700 -410 -391 -941 -636 -1494 -691 -134 -13 -386 -13
-509 1 -722 78 -1370 457 -1792 1049 -239 335 -390 725 -445 1145 -18 141 -21
472 -5 602 71 573 319 1082 725 1489 134 134 228 211 394 322 348 233 823 392
1236 415 33 2 74 4 90 5 17 1 104 -3 194 -8z"/>
<path d="M5947 7849 c-138 -21 -240 -147 -240 -294 0 -123 62 -219 174 -270
55 -24 71 -27 138 -23 87 5 141 28 196 83 63 63 80 108 80 210 0 74 -4 97 -23
132 -63 119 -191 183 -325 162z"/>
<path d="M7603 7850 c-137 -28 -232 -136 -241 -275 -10 -173 104 -302 279
-313 67 -4 83 -1 138 23 112 51 175 147 175 270 0 151 -98 267 -248 294 -33 6
-60 11 -60 10 -1 -1 -20 -5 -43 -9z"/>
<path d="M5300 6199 c-14 -6 -36 -20 -49 -32 -53 -50 -56 -118 -8 -243 162
-422 447 -739 842 -934 164 -81 319 -131 500 -161 113 -19 154 -21 320 -16
136 4 218 12 290 27 587 124 1062 529 1269 1082 39 104 45 162 21 208 -31 59
-113 92 -178 71 -50 -17 -83 -57 -113 -141 -170 -478 -574 -828 -1071 -927
-123 -24 -413 -24 -537 0 -277 56 -528 187 -727 381 -146 142 -257 313 -334
516 -46 121 -57 137 -108 161 -46 21 -79 23 -117 8z"/>
<path d="M3103 9268 c-31 -39 -93 -160 -93 -180 0 -13 45 -94 100 -181 55 -86
100 -160 100 -165 0 -7 -74 -8 -197 -5 l-198 5 -21 -23 c-33 -38 -105 -171
-102 -188 3 -14 28 -17 163 -22 88 -4 243 -7 345 -8 l185 -1 150 -85 c83 -47
157 -84 165 -83 19 4 110 158 107 183 -1 14 -45 45 -157 109 l-155 88 -176
282 c-96 154 -182 282 -191 284 -8 2 -19 -3 -25 -10z"/>
<path d="M10360 8588 c-305 -21 -419 -32 -429 -42 -11 -12 -6 -29 33 -111 l46
-97 86 3 87 4 61 -135 c34 -74 68 -150 75 -168 l14 -34 -56 -52 c-36 -33 -57
-60 -57 -74 0 -31 76 -192 91 -192 29 0 739 707 739 736 0 25 -55 151 -78 177
-21 23 -95 21 -612 -15z m378 -196 c-4 -10 -231 -222 -238 -222 -8 0 -92 192
-86 197 5 6 229 30 289 32 21 0 37 -3 35 -7z"/>
<path d="M2675 8216 c-65 -30 -136 -109 -180 -200 -129 -271 -16 -536 230
-538 118 -1 204 69 320 258 33 54 73 113 89 131 37 44 76 44 118 2 29 -28 30
-33 25 -86 -7 -66 -41 -138 -80 -167 -16 -12 -50 -23 -80 -26 l-52 -5 -23 -70
c-37 -114 -38 -141 -11 -156 40 -22 147 -16 204 11 111 53 210 193 241 340 32
153 3 273 -86 353 -57 51 -125 77 -203 77 -112 0 -162 -39 -282 -219 -128
-191 -177 -229 -229 -177 -35 34 -36 107 -2 175 28 54 58 78 113 89 37 7 39
10 65 87 15 44 26 89 25 100 -5 48 -119 60 -202 21z"/>
<path d="M11145 7889 c-22 -5 -50 -11 -61 -14 -12 -3 -24 -11 -27 -19 -3 -7 5
-67 18 -132 13 -66 20 -122 17 -125 -4 -4 -167 -37 -362 -74 -195 -37 -363
-72 -372 -77 -10 -5 -18 -20 -18 -33 0 -43 30 -170 44 -183 11 -11 76 -1 381
58 203 39 372 67 376 63 4 -4 15 -48 24 -98 22 -126 33 -155 55 -155 32 0 164
30 174 40 8 8 -115 684 -135 738 -9 24 -40 28 -114 11z"/>
<path d="M10442 6877 c-10 -11 -17 -109 -26 -364 -7 -191 -11 -356 -8 -365 5
-22 48 -30 132 -26 62 3 65 4 72 33 4 17 10 132 14 258 l6 227 100 0 100 0 -7
-219 c-5 -137 -4 -221 2 -224 6 -4 46 -9 89 -13 69 -6 81 -4 94 11 14 16 17
61 29 413 1 22 4 23 79 20 l77 -3 -3 -238 c-3 -176 -1 -242 8 -252 9 -11 35
-15 100 -15 73 0 89 3 94 17 4 9 12 169 18 355 10 293 10 340 -3 352 -11 11
-93 16 -354 25 -187 6 -399 14 -470 18 -111 5 -132 3 -143 -10z"/>
<path d="M2300 6855 c-16 -20 9 -698 26 -715 18 -18 963 22 976 41 10 15 3
193 -8 211 -5 8 -64 9 -199 4 l-193 -6 -6 187 c-4 104 -10 199 -14 213 -7 24
-12 25 -91 28 -54 2 -88 -1 -97 -9 -13 -10 -14 -44 -8 -220 l7 -207 -84 -4
c-46 -2 -85 -3 -87 -2 -2 1 -7 102 -13 225 -5 123 -11 234 -14 247 -5 21 -10
22 -94 22 -67 0 -92 -4 -101 -15z"/>
</g>
</svg>
